<svg width="800" height="800" viewBox="0 0 800 800" fill="none" xmlns="http://www.w3.org/2000/svg">
  <defs>
    <radialGradient id="glow" cx="0" cy="0" r="1" gradientUnits="userSpaceOnUse" gradientTransform="translate(400 400) scale(420)">
      <stop offset="0" stop-color="#3F97D5" stop-opacity="0.28" />
      <stop offset="1" stop-color="#3F97D5" stop-opacity="0" />
    </radialGradient>
    <linearGradient id="line" x1="0" y1="0" x2="1" y2="0">
      <stop offset="0" stop-color="#3248AD" stop-opacity="0.18" />
      <stop offset="1" stop-color="#3F97D5" stop-opacity="0.12" />
    </linearGradient>
  </defs>
  <rect width="800" height="800" fill="url(#glow)" />
  <g stroke="url(#line)" stroke-width="0.75" opacity="0.55">
    <path d="M0 80H800" />
    <path d="M0 160H800" />
    <path d="M0 240H800" />
    <path d="M0 320H800" />
    <path d="M0 400H800" />
    <path d="M0 480H800" />
    <path d="M0 560H800" />
    <path d="M0 640H800" />
    <path d="M0 720H800" />
    <path d="M80 0V800" />
    <path d="M160 0V800" />
    <path d="M240 0V800" />
    <path d="M320 0V800" />
    <path d="M400 0V800" />
    <path d="M480 0V800" />
    <path d="M560 0V800" />
    <path d="M640 0V800" />
    <path d="M720 0V800" />
  </g>
  <g opacity="0.28">
    <circle cx="120" cy="160" r="36" fill="#3F97D5" />
    <circle cx="680" cy="640" r="42" fill="#3248AD" />
    <circle cx="600" cy="220" r="28" fill="#3F97D5" />
  </g>
</svg>
